<svg width="300" height="324" viewBox="0 0 300 324" fill="none" xmlns="http://www.w3.org/2000/svg">
<path d="M22.7618 25.4835C52.0651 0.0583189 116.472 4.08397 133.874 2.17708C183.88 -3.11983 196.081 1.54145 245.187 12.9828C259.089 16.1609 273.69 21.8816 284.391 31.6279C298.593 44.5524 299.593 73.1557 299.893 91.589C300.393 122.629 300.593 288.21 264.989 305.267C250.488 312.153 235.186 316.92 219.484 319.25C180.98 324.865 162.278 324.441 123.473 323.276C103.771 322.746 84.1687 321.899 64.4665 321.687C49.8648 321.475 13.4607 311.093 7.66005 264.904C-2.5411 184.391 -6.84159 51.1206 22.7618 25.4835Z" fill="#EFE6D6"/>
</svg>
