<svg width="589" height="307" viewBox="0 0 589 307" fill="none" xmlns="http://www.w3.org/2000/svg">
<path d="M32.5 268.1C39.3 243 21.5 59.1 64.2 18.6C76.8 6.7 107.3 3.8 124.5 2.1C174 -3 486.1 1.5 534.7 12.3C548.4 15.3 562.9 20.7 573.5 29.9C587.6 42.1 588.6 69.1 588.9 86.5C589.4 115.8 591.6 263.1 547.3 288.2C533.6 296 517.8 299.2 502.2 301.4C464.1 306.7 152.5 306.3 114.2 305.2C94.7 304.7 75.3 303.9 55.8 303.7C41.4 303.5 12.4 309.5 0.0999756 303.2C15.5 296.1 26.5 290.4 32.5 268.1Z" fill="white"/>
</svg>
