<svg width="301" height="137" viewBox="0 0 301 137" fill="none" xmlns="http://www.w3.org/2000/svg">
<path d="M30.1112 101.039C36.4114 77.7841 31.9642 41.7434 59.4812 17.1912C71.433 6.53648 99.4132 3.47904 115.349 1.904C161.211 -2.72849 206.702 1.3481 251.729 11.3543C264.423 14.1338 277.393 17.7471 287.678 25.8076C291.939 29.143 295.738 33.4049 297.776 38.5006C299.444 42.5772 299.907 47.0244 300 51.4716C300.649 78.6179 286.844 106.32 263.311 119.754C250.618 126.981 235.979 129.946 221.526 131.984C186.226 136.895 141.198 136.524 105.713 135.505C87.6467 135.042 69.6726 134.3 51.6059 134.115C38.2644 133.93 11.3959 139.489 0 133.652C14.3607 126.981 24.5522 121.7 30.1112 101.039Z" fill="white"/>
</svg>
