<svg width="302" height="307" viewBox="0 0 302 307" fill="none" xmlns="http://www.w3.org/2000/svg">
<path d="M32.5 268.055C39.3 242.955 21.5 59.055 64.2 18.555C76.8 6.65505 107.3 3.75505 124.5 2.05505C174 -2.94495 198.1 1.45505 246.7 12.255C260.4 15.255 274.9 20.655 285.5 29.855C299.6 42.055 300.6 69.055 300.9 86.455C301.4 115.755 303.6 263.055 259.3 288.155C245.6 295.955 229.8 299.155 214.2 301.355C176.1 306.655 152.5 306.255 114.2 305.155C94.7 304.655 75.3 303.855 55.8 303.655C41.4 303.455 12.4 309.455 0.0999985 303.155C15.5 296.055 26.5 290.355 32.5 268.055Z" fill="white"/>
</svg>
