<svg viewBox="0 0 500.39 511.77" xmlns="http://www.w3.org/2000/svg"><path d="m427.27 13c-95-28.79-170.69 218.77-176.62 238.72-5.93-19.94-81.65-267.5-176.65-238.72-99 30-63 122-3 182 43.54 43.54 118.68 54.43 156.62 57.13-25.72 10.92-125.91 56.23-136.48 104-12.14 54.87-26.84 135.13 18.02 145.51s90.13-59.36 105-99c11.38-30.33 31.62-80.79 36.91-110 5.29 29.19 25.53 79.64 36.91 110 14.87 39.63 60.13 109.37 105 99s30.12-90.64 18.02-145.49c-10.59-47.85-111.06-93.23-136.6-104.06 38.13-2.78 112.6-13.81 155.87-57.09 60-60 96-152-3-182zm-176.17 260v.09-.09a81.32 81.32 0 0 0 -14.12-20.33c7.48.35 12.4.34 13.74.33s6.64 0 14.61-.37a81.23 81.23 0 0 0 -14.23 20.37z" fill="#fff"/><g fill="#4d4d4d"><path d="m249.27 263.17h-.27c-59.84-1.34-111-12.93-152-34.44-35.39-18.53-62.84-44.54-79.45-75.23-22.14-40.93-23.44-88.29-3.3-120.65 13.56-21.79 35.45-33.74 60.06-32.8 28.28 1.08 59 18.82 88.72 51.3 33.72 36.8 66.17 91.78 96.45 163.42a12.49 12.49 0 0 1 1 4.33q.2 4.58.41 9.18c.33 7.22.66 14.68.91 22a12.5 12.5 0 0 1 -12.49 12.92zm-177.76-238.17c-18.9 0-30 11.36-36 21.06-7 11.27-10.74 26.3-10.49 42.3.28 17.76 5.31 36.17 14.55 53.24 14.23 26.3 38.09 48.77 69 65 34.59 18.13 77.5 28.57 127.7 31.11-.12-2.78-.25-5.55-.37-8.28q-.16-3.49-.31-7c-28.91-68-59.51-119.86-91-154.2-31.76-34.66-56.27-42.62-71.23-43.23q-.94 0-1.85 0z"/><path d="m251.12 263.17a12.5 12.5 0 0 1 -12.49-12.92c.25-7.3.58-14.78.91-22q.21-4.57.41-9.14a12.48 12.48 0 0 1 1-4.33c30.28-71.64 62.73-126.62 96.44-163.42 29.73-32.49 60.4-50.23 88.69-51.31 24.62-.94 46.51 11 60.07 32.8 20.14 32.37 18.84 79.73-3.3 120.65-16.6 30.69-44.06 56.7-79.4 75.22-41 21.51-92.21 33.1-152 34.44zm13.7-40.73q-.15 3.46-.31 6.92c-.12 2.75-.25 5.53-.37 8.33 50.21-2.53 93.11-13 127.7-31.11 30.92-16.2 54.78-38.67 69-65 9.24-17.07 14.27-35.48 14.55-53.24.25-16-3.47-31-10.49-42.31-6.22-10.03-17.9-21.77-37.9-21.03-15 .57-39.47 8.53-71.24 43.2-31.43 34.38-62.03 86.25-90.94 154.24z"/><path d="m121.42 511.77a46.65 46.65 0 0 1 -5.95-.38c-30.47-3.92-51.55-37.14-52.41-82.68-.74-39.27 14-80.19 40.52-112.29 32.62-39.53 82.3-65.83 143.67-76.08a12.5 12.5 0 0 1 14.55 11.93c.26 8 .38 14.86.38 20.9 0 3.81.1 7.28.21 10.95.06 2.12.12 4.24.17 6.44a12.48 12.48 0 0 1 -.46 3.63c-21.35 75.88-45.63 133.19-72.17 170.34-27.19 38.04-51.44 47.24-68.51 47.24zm115.73-244c-48.75 10.65-88.06 32.82-114.29 64.6-22.75 27.56-35.43 62.52-34.81 95.91.6 31.61 13.46 56.15 30.6 58.35 14.43 1.85 33-11.49 50.92-36.6 24.65-34.51 47.51-88.6 67.94-160.79 0-1.47-.08-2.91-.12-4.35-.11-3.69-.22-7.5-.22-11.67.01-1.79 0-3.6-.02-5.49z"/><path d="m379 511.76c-17.07 0-41.32-9.19-68.5-47.25-26.57-37.16-50.85-94.51-72.2-170.36a12.49 12.49 0 0 1 -.46-3.62c0-2.2.1-4.33.17-6.46.11-3.66.21-7.11.21-10.9 0-6.07.12-12.91.38-20.9a12.5 12.5 0 0 1 14.55-11.93c61.37 10.24 111.05 36.55 143.68 76.08 26.49 32.1 41.26 73 40.52 112.29-.86 45.54-21.92 78.76-52.41 82.68a46.74 46.74 0 0 1 -5.94.37zm-116.13-222.6c20.44 72.2 43.29 126.3 67.95 160.82 17.94 25.11 36.5 38.45 50.93 36.61 17.13-2.2 30-26.74 30.6-58.35.63-33.39-12.06-68.35-34.81-95.91-26.23-31.78-65.54-53.95-114.29-64.6q0 2.83 0 5.44c0 4.15-.11 8-.22 11.63-.03 1.44-.12 2.89-.16 4.36z"/></g></svg>