<svg viewBox="0 0 476.82 193.11" xmlns="http://www.w3.org/2000/svg" xmlns:xlink="http://www.w3.org/1999/xlink"><linearGradient id="a" gradientUnits="userSpaceOnUse" x1="133" x2="227.01" y1="148.65" y2="148.65"><stop offset="0" stop-color="#89507b"/><stop offset="1" stop-color="#30699c"/></linearGradient><path d="m222.51 186.21c-6.7-6.1-7.2-6.3-8.3-6.3-.9 0-1.4.3-8.7 10.5h-17.21v-37.91h26.6c.8 0 1.3-.4 1.3-1.1 0-.9-.8-1.7-4.3-5-5.3-5-5.9-5.4-7-5.4s-1.7.8-8.3 9.5h-8.3v-32.3q2.1-1.2 2.4-2.4h28.9c.8 0 1.3-.4 1.3-1.1s-1.1-1.9-4.5-5.1c-5.5-5.2-5.8-5.4-6.9-5.4-.9 0-1.2.3-8.7 9.6h-47.7c-3.5 0-7.5-.2-14.1-.7l1 3.4c5.7-.5 9.6-.7 13.1-.7h21.6c.2 2.3.2 4.8.2 10.7v63.9h-11.3v-45.9c2.6-1.4 3.5-2.1 3.5-3.3 0-1.5-1.8-2.6-16.8-4.2.3 4.2.5 10.1.5 21.6v31.8h-3.7c-3.5 0-7.5-.2-14.1-.7l1 3.4c5.7-.5 9.6-.7 13.1-.7h78.61c.8 0 1.3-.4 1.3-1.1s-.3-1.3-4.5-5.09z" fill="url(#a)"/><g fill="#89507b"><path d="m159.7 40.5c0 2.6.7 3.4 4.3 3.4 4.8 0 7.9-1.7 7.9-4.3 0-2.4-.5-11.3-.5-17.6v-10.8c3.4-1.4 3.9-2.3 3.9-3.2 0-1.9-1.3-2.6-15.8-3.6.7 5.4.7 9.6.7 18.9 0 3.8-.5 14.7-.5 17.2z"/><path d="m175.1 47.6a75.45 75.45 0 0 1 -9.9.5c-.6 0-.6.9 0 1.1 6.4 2.1 8.3 4.1 9.5 8 .8 2.6 1.7 3.1 3.5 3.1a15.84 15.84 0 0 0 8.3-2.4c3.6-2.1 5.3-5 5.3-10.5 0-3.5-.6-19.7-.6-26.4v-12.7c3.3-1.4 4.1-2.2 4.1-3.3 0-1.7-1.5-2.7-16.7-3.7a86.62 86.62 0 0 1 .7 13.6v27.8c0 2.7-1.09 4.5-4.2 4.9z"/><path d="m191.61 82.91c-5-4.5-5.4-4.6-6.4-4.6s-1.3.2-8.2 9h-21.31v-15.41h29.5c.7 0 1.1-.2 1.1-1.1 0-.7-.3-.9-4.3-4.7-4.5-4.2-5-4.3-5.9-4.3s-1.2.2-7.7 8.1h-12.7v-7.9c3.4-1.2 3.9-1.9 3.9-2.9 0-1.7-1.2-2.5-14.1-3.5v-.3c0-2.3-.4-10.7-.6-25.5h13.3a1 1 0 0 0 1.1-1.1c0-.6-.2-1-3-3.9-4-4.2-4.4-4.3-5.3-4.3-.7 0-1.1.2-5.8 7.3h-.3v-16.6c1.3-.7 2-1.2 2.2-2h8a1 1 0 0 0 1.1-1.1c0-.6-.2-1-3.1-3.9-4.1-4.1-4.5-4.2-5.4-4.2s-1.2.2-6.8 7.2h-24.4a107.51 107.51 0 0 1 -11.5-.7l1 3.4a82.54 82.54 0 0 1 9.9-.7c.1 2 .2 5.1.2 12.9v5.7h-1.1a107.51 107.51 0 0 1 -11.5-.7l1 3.4a97.32 97.32 0 0 1 10.5-.7h1c-.3 10.3-1.1 14.4-2.6 18.7a28.89 28.89 0 0 1 -10.9 14.4c-.5.3-.1 1.1.5.9 8.1-3.3 14.8-7.9 19.4-15.8 3.1-5.3 4.3-10.8 4.5-18.2h6.6c-.2 15-.6 23.8-.6 26.2s.7 3.4 4.3 3.4a15 15 0 0 0 5.8-.9c.1 2 .1 4 .1 6.1v5.3h-12.1a157.3 157.3 0 0 1 -16.2-.7l.9 3.4a137.73 137.73 0 0 1 15.3-.7h12.1v15.4h-21.1a157.28 157.28 0 0 1 -16.2-.7l.9 3.4a137.86 137.86 0 0 1 15.3-.7h73.5a.9.9 0 0 0 1-1c.01-.79-.29-1.19-4.89-5.39zm-58.11-55.11h-6.5v-16.4c1.7-.8 2.3-1.4 2.4-2.2h3.9c.1 1.7.2 3.6.2 5.3z"/><path d="m91.71 86.5c-2.4-2.3-2.8-2.6-3.6-2.6 2.4-.4 4-2.4 4-5.5 0-4.8-4.2-10.4-18-9.4a.57.57 0 0 0 -.2 1.1 13.43 13.43 0 0 1 4.7 3.3l-8.4.3v-6.8h7.5c.2 1.2.8 1.5 3.1 1.5 5 0 7.2-.8 7.2-3s-.3-7.5-.3-9.2v-5.5c2.4-2 2.8-2.3 2.8-3.2s-.3-1.3-4.2-4.4c-3.6-2.8-4.3-3.2-5.2-3.2-.7 0-1.1.4-5 4.6h-5.91v-6.5h23.7a.87.87 0 0 0 1-.9c0-.9-.1-1.2-4-4.9-3.7-3.5-4-3.6-4.7-3.6-.9 0-1.2.2-7 7.4h-9v-6.9c3.2-1.2 3.7-1.9 3.7-2.9 0-1.7-1.5-2.4-14.3-3.4a51.11 51.11 0 0 1 .6 7.6v5.6h-8.1a70 70 0 0 1 -10.2-.7l1 3.4a45.8 45.8 0 0 1 9.2-.7h8.1v6.5h-5.8c-1-.8-3.6-1.9-10-4.1.3 4.9.3 7.9.3 10.8 0 6.3-.4 14.4-.4 17.1 0 2.3.8 2.8 3.8 2.8 3.7 0 5.2-1.5 5.4-4.2h6.7v7.1c-4.1.1-8 .1-12.5.1-1.7 0-3.7-.1-6.7-.2 3.8 11.7 4.6 12.8 5.4 12.8 1.1 0 1.7-.1 2.4-2.3 11.7-3.2 21.4-5.7 31.6-8.6a14.65 14.65 0 0 1 1.7 3.8c.9 3.1 2 4.4 5 4.4h.4c-.6.3-1.5 1.5-5.1 6.3h-1.4v-3.5c2.4-1 3.2-1.8 3.2-2.7 0-1.3-1.3-2.2-14.5-3.7a72.94 72.94 0 0 1 .7 9.9h-16.9a70 70 0 0 1 -10.2-.7l1 3.4a45.79 45.79 0 0 1 9.2-.7h16.9v8.3c0 3.9-.6 5.1-3.5 5.4-1.7.2-3.6.2-5.7.3a15.21 15.21 0 0 0 .2-2.3c0-4.3-4.3-9.1-15-9.9-.6 0-.7.5-.2.8 2.4 1.4 3.8 4.9 3.9 10 .1 3.7 1.7 5.8 4.8 5.8 2.7 0 4.7-.9 5.7-2.9 3.5 1.1 5.7 2.5 7 6.6.6 1.9 1.5 2.8 3.3 2.7a11.37 11.37 0 0 0 4.8-1.4c4.8-2.6 5.9-4.7 5.9-10.1 0-3.5-.6-8.7-.6-13.3h12.9c1.3 0 1.7-.5 1.7-1.3s-.39-1.2-3.89-4.5zm-21.5-40h7.4v7.9h-7.41zm0 9.9h7.4v8.5h-7.41zm-10 8.5h-6.71v-8.5h6.7zm0-10.5h-6.71v-6.8a4.39 4.39 0 0 0 1.2-1.1h5.5z"/><path d="m40.8 90.1c-3.4-3.2-4.4-3.9-5.1-3.9s-1.3.7-5.9 7h-2.7c-.1-3.4-.1-7.4-.1-11.9h4.3v.8c0 2.5.4 3.2 2.5 3.2 4.3 0 6.5-1.2 6.5-4.5 0-2.5-.4-11.3-.4-18.9v-5.4c2.1-1.8 2.5-2.6 2.5-3.3s-.4-1.6-2.4-3.3c-3.7-3.2-4.4-3.7-5.4-3.7s-1.6.9-4.7 4.8h-2.9v-10.9h14.2c.6 0 1-.2 1-.9s-.4-1.4-3.4-4.6-3.3-3.4-4.1-3.4-1.2.4-5.4 6.9h-2.3v-8.2c3.4-1.4 4-2.2 4-3.2 0-1.7-.5-2.5-14.4-3.7.3 3.1.4 7.5.4 15.1h-4.7a102.25 102.25 0 0 1 -11-.7l.9 3.4a62.75 62.75 0 0 1 10.1-.7h4.7v10.9h-2.9c-1.1-.8-3.7-1.9-10.2-3.9.3 3.3.3 6.3.3 14.2 0 9.4-.5 21.3-.5 23.3 0 2.5.4 2.9 3.3 2.9 3.7 0 5.6-.8 5.6-3.7v-2.5h4.4c0 4.5 0 8.4-.1 11.9h-5.9a102.2 102.2 0 0 1 -11-.7l.9 3.4a62.74 62.74 0 0 1 10.1-.7h5.9c-.2 11.8-.5 17.2-.5 19.3 0 1.7.7 2.3 3.6 2.3 5.2 0 7.5-1.7 7.5-4.5 0-1.3-.3-6.5-.4-17.1h15.3c1.2 0 1.6-.3 1.6-1.1s-.3-1.2-3.2-4zm-23.4-10.8h-4.8v-13h4.8zm0-15h-4.8v-10.2a10.17 10.17 0 0 0 1.6-1.1h3.2zm9.3-11.3h4.6v11.3h-4.6zm0 13.3h4.6v13h-4.6z"/></g><path d="m292.4 116.8c-.6 0-.9.7-.4 1 3 1.8 3.8 3.7 4.4 9a4.49 4.49 0 0 0 4.7 3.6 5.89 5.89 0 0 0 6.1-5.9c.01-4.8-5.49-8.2-14.8-7.7z" fill="#016db2"/><path d="m320.21 144.2c-5.7 9.3-8.1 11.5-9.6 11.5a8.4 8.4 0 0 1 -2.9-.5 24.21 24.21 0 0 1 -6.9-3.8 74.92 74.92 0 0 0 7.9-8c3.8-.2 4.5-.7 4.5-1.8s-.9-2-11.6-7.1l18.4-.1a1 1 0 0 0 1-1.1c0-.7-.2-1.1-3.5-4.1-4.9-4.5-5.3-4.6-6.3-4.6s-1.2.3-7 7.9l-15.9.1a49.74 49.74 0 0 1 -1.3-10.7c3-1.3 3.6-2 3.6-2.9 0-1.6-.5-2.4-15.5-3.6.5 2.8.6 4.4 1 7.9a79.64 79.64 0 0 0 1.5 9.4l-14.8.1v-2.6c1.6-.9 2.4-1.7 2.4-2.6 0-.6-.7-1.3-4.6-1.9q3.6-.6 6.9-1.2c3.9.8 5.3-.2 5.3-1.3s-.8-2.6-10.5-8.4h55.9a.9.9 0 0 0 1-1c0-.7-.1-1-3.4-3.9-5.1-4.5-5.4-4.6-6.3-4.6s-1.2.1-7.6 7.5h-22.51v-9h27.3a.9.9 0 0 0 1-1c0-.7-.1-.9-3.5-3.9-4.7-4.2-5-4.3-5.8-4.3s-1.1.1-7.2 7.2h-11.8v-6.8c1.5-.9 2.1-1.4 2.1-2.1h34.2a.9.9 0 0 0 1-1c0-.7-.1-.9-3.5-3.9-4.7-4.2-5-4.3-5.8-4.3s-1.1.1-7.2 7.2h-16.7c2.7-1.9 5-3.5 8.7-6.4 3.7-.8 4.5-1.3 4.5-2.6s-1.1-2.1-14.2-5.6a30.2 30.2 0 0 1 -1.4 5.3c-1.5 4.1-2.3 6.3-3.7 9.3h-10.1a5.65 5.65 0 0 0 2.6-5.2c0-4.7-5.6-8.7-16.5-8.5-.6 0-.9.7-.4 1 3 1.6 5 5.1 5.3 9a5.18 5.18 0 0 0 1.7 3.7h-14.4c-3.1 0-6.7-.2-11.9-.7l1 3.4a103.67 103.67 0 0 1 10.9-.7h21.2c.1 1.8.2 3.8.2 5.5v3.4h-14.3c-3.1 0-6.7-.2-11.9-.7l1 3.4a103.65 103.65 0 0 1 10.9-.7h14.3v9h-21.6c-3.5 0-7.5-.2-14.1-.7l1 3.4c5.7-.5 9.6-.7 13.1-.7h15.5a11.87 11.87 0 0 1 -2.2 1.6c-7.2 4.5-17.6 8.4-29.1 10.8-.6.1-.4.9.2.9q11.55-.3 21.3-1.2a32.38 32.38 0 0 1 .2 4.4v1.6h-7.1a113 113 0 0 1 -14.6-.7l.9 3.4c5.5-.5 10.1-.7 13.7-.7h7.1v8.5c-5 .8-9.8 1.5-13.9 2-3.1.4-5.2.5-8.6.8 4.5 11.7 5.5 12.6 6.6 12.6s1.5-.6 2.4-2.8c4.6-1.5 9.1-3 13.5-4.6v4.7c0 2-1 3.2-2.4 3.5a64.41 64.41 0 0 1 -9.7.5.5.5 0 0 0 -.1 1c4.9 1.8 6.8 4.1 7.8 7.3.5 1.7.9 2.3 2.6 2.4a22.33 22.33 0 0 0 7.8-1.1c3.7-1.5 5.9-4.5 5.9-9.6 0-1.5-.3-6.2-.4-12.9 6.8-2.7 12.7-5.1 16.8-7a39.82 39.82 0 0 0 3 7.3 48.7 48.7 0 0 0 3.2 5.2 53.92 53.92 0 0 1 -22.2 12c-.6.1-.3 1.1.3 1 10.9-1.1 18.8-3.1 27-7.2a40 40 0 0 0 10.7 7.8c4.8 2.3 8.9 3.4 12.5 3.4 4.1 0 6.8-1.9 6.8-4.9a8.76 8.76 0 0 0 -1.2-4.8 9.51 9.51 0 0 1 -.9-4.3c0-1.5.4-3.9 2.2-11.1.11-.6-.49-.9-.79-.4zm-57.4-2.7v-6.7l15.2-.1c.3 1.2.7 2.4 1 3.6-4.41 1-10.21 2.1-16.21 3.2zm34.4-1a39.76 39.76 0 0 1 -3.2 4.3 32.54 32.54 0 0 1 -5.1-10.2l11.6-.1a42.59 42.59 0 0 1 -3.31 6z" fill="#016db2"/><path d="m425.4 149.5c-4.6.7-10.1 1.5-15.7 2.2v-20.1h14.4a1 1 0 0 0 1-1c0-.7-.3-1.2-3.1-4.4-3.1-3.6-3.5-3.7-4.2-3.7s-1.1.2-5.8 7.1h-2.3v-17.8a8.09 8.09 0 0 0 1.1-.3c.4.8 1.3 1 3.1 1 5.4 0 7.7-1.5 7.7-4.3 0-1-.4-6.6-.4-13.6v-3.2c2.7-2.3 2.8-2.5 2.8-3.3s-.3-1.2-3.5-4c-4.3-3.7-4.8-3.8-5.7-3.8s-1.2.2-5.6 5h-10.2c-.6-1.4-3.1-2.4-12.7-4.6.3 4 .3 7.7.3 17.9 0 7.9-.4 15-.4 16.2 0 2.8.7 3.4 3.8 3.4 4.4 0 6.7-1.4 6.7-5.1v-2.6h2.6c.2 2 .2 4.1.2 6.1v36.4l-4.2.4v-24.8c2.5-1.4 2.9-2 2.9-2.9s-1.1-1.9-13-3.3a132.57 132.57 0 0 1 .5 15.4v16.5q-2.1.15-5.7.3c4.1 13.7 4.8 15 6.1 15s1.8-.7 2.8-3.4c13.4-5.1 26.4-10.9 36.8-15.7a.53.53 0 0 0 -.3-1zm-28.7-41v-19.8a16.26 16.26 0 0 0 1.8-1.4h12v21.2z" fill="#016db2"/><path d="m476.41 122.9a77.38 77.38 0 0 1 -22.6-6.8 73.43 73.43 0 0 0 11.3-16.9c3.7-1.8 3.9-2.2 3.9-3.4s-.5-1.8-4.7-5.2c-4.9-3.9-5.3-4-6.3-4s-1.5.4-6.2 6.2h-10.11c1.2-2.3 2.2-4.5 3-6.5 3-1 3.7-1.7 3.7-2.9 0-1.4-1.3-2-15.4-5.8a55.87 55.87 0 0 1 -1 6.3c-3 14.5-8.3 27.7-14.4 35-.4.5.1 1 .6.7 5.3-3.1 11.4-9.3 16.5-16.1a51 51 0 0 0 6 12.4c-9 11.6-20.3 21.6-28.5 25.3-.5.2-.2 1.2.4 1a83.53 83.53 0 0 0 14.1-5.4v9.9c0 8.9-.5 18.8-.5 20.1 0 2.7.8 3.6 4.6 3.6 4.2 0 6.6-1.3 6.6-4.1v-4.2h16.9v3.6c0 2.7.9 3.5 4.9 3.5 4.6 0 7.2-1.8 7.2-4.6 0-1.2-.4-6.7-.4-17.1v-5.7c2-1.5 2.3-1.8 2.3-2.7s-.4-1.4-4.3-4.4c-1.3-1-2.2-1.7-2.9-2.2a28.21 28.21 0 0 0 5 1.9 8.54 8.54 0 0 0 2.5.4c.8 0 1.5-.7 1.9-1.9 1.2-3.4 2.9-6.9 5.9-9 .51-.3.6-.9.01-1zm-40.2-21.4c1.6-2.2 3-4.5 4.3-6.7h12.49a76.32 76.32 0 0 1 -8.5 15.8 33.69 33.69 0 0 1 -8.3-9.1zm18.1 58.6h-16.91v-20.9a12.75 12.75 0 0 0 1.5-1.2h15.4zm3.9-28.9c-.8 0-1 .1-5.1 4.8h-14c-.6-.6-2.1-1.3-6-2.7a91.09 91.09 0 0 0 13.8-10.2 53.2 53.2 0 0 0 11.5 8.1z" fill="#016db2"/><circle cx="353.53" cy="140.13" fill="#016db2" r="25"/><path d="m359.69 130.12c2.28-2.35 2.48-2.48 2.83-2.48s.79.21 2.9 2c1.69 1.48 1.9 1.66 1.9 2.1s-.17.59-2.31 1.41a66.45 66.45 0 0 1 -19.64 12.49 7.66 7.66 0 0 0 2.73 2.66c1.48.76 3.07 1.17 6.52 1.17a116.89 116.89 0 0 0 15.74-1.1c.21 0 .24.28.07.38a4.9 4.9 0 0 0 -2.42 3.93 1.06 1.06 0 0 1 -.9.9 70.65 70.65 0 0 1 -9.39.38c-5.38 0-8-1-9.73-2.52a12.94 12.94 0 0 1 -3.69-6.32 33.19 33.19 0 0 1 -2 6.28c-.07 1.21-.38 1.66-.76 1.69s-.83-.24-3.52-4.14a15 15 0 0 0 4.9-5.31 5.4 5.4 0 0 0 .52-2.1c0-.41.14-.62.79-.52 1.07.17 1.41.48 1.21.93a9.49 9.49 0 0 0 -.93 2.07c.14.31.28.59.45.9a58.36 58.36 0 0 0 15-14.15h-15.18a26.51 26.51 0 0 0 -3.52.24l-.35-1.21a30.38 30.38 0 0 0 3.87.28h6.35v-4.28a18.57 18.57 0 0 0 -.21-2.62c5.83.41 6.25.69 6.25 1.31 0 .35-.17.62-1.41 1.1v4.49z" fill="#fff"/></svg>