<svg xmlns="http://www.w3.org/2000/svg" xmlns:xlink="http://www.w3.org/1999/xlink" viewBox="0 0 476.82 193.11"><defs><style>.cls-1{fill:url(#未命名漸層_9);}.cls-2{fill:#89507b;}.cls-3{fill:#016db2;}.cls-4{fill:#fff;}</style><linearGradient id="未命名漸層_9" x1="133" y1="148.65" x2="227.01" y2="148.65" gradientUnits="userSpaceOnUse"><stop offset="0" stop-color="#89507b"/><stop offset="1" stop-color="#30699c"/></linearGradient></defs><title>butterfly-line</title><g id="點狀"><path class="cls-1" d="M222.51,186.21c-6.7-6.1-7.2-6.3-8.3-6.3-.9,0-1.4.3-8.7,10.5H188.3V152.5h26.6c.8,0,1.3-.4,1.3-1.1,0-.9-.8-1.7-4.3-5-5.3-5-5.9-5.4-7-5.4s-1.7.8-8.3,9.5h-8.3V118.2q2.1-1.2,2.4-2.4h28.9c.8,0,1.3-.4,1.3-1.1s-1.1-1.9-4.5-5.1c-5.5-5.2-5.8-5.4-6.9-5.4-.9,0-1.2.3-8.7,9.6H153.1c-3.5,0-7.5-.2-14.1-.7l1,3.4c5.7-.5,9.6-.7,13.1-.7h21.6c.2,2.3.2,4.8.2,10.7v63.9H163.6V144.5c2.6-1.4,3.5-2.1,3.5-3.3,0-1.5-1.8-2.6-16.8-4.2.3,4.2.5,10.1.5,21.6v31.8h-3.7c-3.5,0-7.5-.2-14.1-.7l1,3.4c5.7-.5,9.6-.7,13.1-.7h78.61c.8,0,1.3-.4,1.3-1.1S226.71,190,222.51,186.21Z"/><path class="cls-2" d="M159.7,40.5c0,2.6.7,3.4,4.3,3.4,4.8,0,7.9-1.7,7.9-4.3,0-2.4-.5-11.3-.5-17.6V11.2c3.4-1.4,3.9-2.3,3.9-3.2,0-1.9-1.3-2.6-15.8-3.6.7,5.4.7,9.6.7,18.9C160.2,27.1,159.7,38,159.7,40.5Z"/><path class="cls-2" d="M175.1,47.6a75.45,75.45,0,0,1-9.9.5c-.6,0-.6.9,0,1.1,6.4,2.1,8.3,4.1,9.5,8,.8,2.6,1.7,3.1,3.5,3.1a15.84,15.84,0,0,0,8.3-2.4c3.6-2.1,5.3-5,5.3-10.5,0-3.5-.6-19.7-.6-26.4V8.3c3.3-1.4,4.1-2.2,4.1-3.3,0-1.7-1.5-2.7-16.7-3.7a86.62,86.62,0,0,1,.7,13.6V42.7C179.3,45.4,178.21,47.2,175.1,47.6Z"/><path class="cls-2" d="M191.61,82.91c-5-4.5-5.4-4.6-6.4-4.6s-1.3.2-8.2,9H155.7V71.9h29.5c.7,0,1.1-.2,1.1-1.1,0-.7-.3-.9-4.3-4.7-4.5-4.2-5-4.3-5.9-4.3s-1.2.2-7.7,8.1H155.7V62c3.4-1.2,3.9-1.9,3.9-2.9,0-1.7-1.2-2.5-14.1-3.5v-.3c0-2.3-.4-10.7-.6-25.5h13.3a1,1,0,0,0,1.1-1.1c0-.6-.2-1-3-3.9-4-4.2-4.4-4.3-5.3-4.3-.7,0-1.1.2-5.8,7.3h-.3V11.2c1.3-.7,2-1.2,2.2-2h8a1,1,0,0,0,1.1-1.1c0-.6-.2-1-3.1-3.9C149,.1,148.6,0,147.7,0s-1.2.2-6.8,7.2H116.5A107.51,107.51,0,0,1,105,6.5l1,3.4a82.54,82.54,0,0,1,9.9-.7c.1,2,.2,5.1.2,12.9v5.7H115a107.51,107.51,0,0,1-11.5-.7l1,3.4a97.32,97.32,0,0,1,10.5-.7h1c-.3,10.3-1.1,14.4-2.6,18.7a28.89,28.89,0,0,1-10.9,14.4c-.5.3-.1,1.1.5.9,8.1-3.3,14.8-7.9,19.4-15.8,3.1-5.3,4.3-10.8,4.5-18.2h6.6c-.2,15-.6,23.8-.6,26.2s.7,3.4,4.3,3.4a15,15,0,0,0,5.8-.9c.1,2,.1,4,.1,6.1v5.3H131a157.3,157.3,0,0,1-16.2-.7l.9,3.4a137.73,137.73,0,0,1,15.3-.7h12.1v15.4H122a157.28,157.28,0,0,1-16.2-.7l.9,3.4a137.86,137.86,0,0,1,15.3-.7h73.5a.9.9,0,0,0,1-1C196.51,87.51,196.21,87.11,191.61,82.91ZM133.5,27.8H127V11.4c1.7-.8,2.3-1.4,2.4-2.2h3.9c.1,1.7.2,3.6.2,5.3Z"/><path class="cls-2" d="M91.71,86.5c-2.4-2.3-2.8-2.6-3.6-2.6,2.4-.4,4-2.4,4-5.5,0-4.8-4.2-10.4-18-9.4a.57.57,0,0,0-.2,1.1,13.43,13.43,0,0,1,4.7,3.3l-8.4.3V66.9h7.5c.2,1.2.8,1.5,3.1,1.5,5,0,7.2-.8,7.2-3s-.3-7.5-.3-9.2V50.7c2.4-2,2.8-2.3,2.8-3.2s-.3-1.3-4.2-4.4c-3.6-2.8-4.3-3.2-5.2-3.2-.7,0-1.1.4-5,4.6H70.2V38h23.7a.87.87,0,0,0,1-.9c0-.9-.1-1.2-4-4.9-3.7-3.5-4-3.6-4.7-3.6-.9,0-1.2.2-7,7.4h-9V29.1c3.2-1.2,3.7-1.9,3.7-2.9,0-1.7-1.5-2.4-14.3-3.4a51.11,51.11,0,0,1,.6,7.6V36H52.1a70,70,0,0,1-10.2-.7l1,3.4a45.8,45.8,0,0,1,9.2-.7h8.1v6.5H54.4c-1-.8-3.6-1.9-10-4.1.3,4.9.3,7.9.3,10.8,0,6.3-.4,14.4-.4,17.1,0,2.3.8,2.8,3.8,2.8,3.7,0,5.2-1.5,5.4-4.2h6.7V74c-4.1.1-8,.1-12.5.1-1.7,0-3.7-.1-6.7-.2,3.8,11.7,4.6,12.8,5.4,12.8,1.1,0,1.7-.1,2.4-2.3,11.7-3.2,21.4-5.7,31.6-8.6a14.65,14.65,0,0,1,1.7,3.8c.9,3.1,2,4.4,5,4.4h.4c-.6.3-1.5,1.5-5.1,6.3H81V86.8c2.4-1,3.2-1.8,3.2-2.7,0-1.3-1.3-2.2-14.5-3.7a72.94,72.94,0,0,1,.7,9.9H53.5a70,70,0,0,1-10.2-.7l1,3.4a45.79,45.79,0,0,1,9.2-.7H70.4v8.3c0,3.9-.6,5.1-3.5,5.4-1.7.2-3.6.2-5.7.3a15.21,15.21,0,0,0,.2-2.3c0-4.3-4.3-9.1-15-9.9-.6,0-.7.5-.2.8,2.4,1.4,3.8,4.9,3.9,10,.1,3.7,1.7,5.8,4.8,5.8,2.7,0,4.7-.9,5.7-2.9,3.5,1.1,5.7,2.5,7,6.6.6,1.9,1.5,2.8,3.3,2.7a11.37,11.37,0,0,0,4.8-1.4c4.8-2.6,5.9-4.7,5.9-10.1,0-3.5-.6-8.7-.6-13.3h12.9c1.3,0,1.7-.5,1.7-1.3S95.21,89.8,91.71,86.5Zm-21.5-40h7.4v7.9H70.2Zm0,9.9h7.4v8.5H70.2Zm-10,8.5H53.5V56.4h6.7Zm0-10.5H53.5V47.6a4.39,4.39,0,0,0,1.2-1.1h5.5Z"/><path class="cls-2" d="M40.8,90.1c-3.4-3.2-4.4-3.9-5.1-3.9s-1.3.7-5.9,7H27.1c-.1-3.4-.1-7.4-.1-11.9h4.3v.8c0,2.5.4,3.2,2.5,3.2,4.3,0,6.5-1.2,6.5-4.5,0-2.5-.4-11.3-.4-18.9V56.5c2.1-1.8,2.5-2.6,2.5-3.3S42,51.6,40,49.9c-3.7-3.2-4.4-3.7-5.4-3.7s-1.6.9-4.7,4.8H27V40.1H41.2c.6,0,1-.2,1-.9s-.4-1.4-3.4-4.6-3.3-3.4-4.1-3.4-1.2.4-5.4,6.9H27V29.9c3.4-1.4,4-2.2,4-3.2,0-1.7-.5-2.5-14.4-3.7.3,3.1.4,7.5.4,15.1H12.3a102.25,102.25,0,0,1-11-.7l.9,3.4a62.75,62.75,0,0,1,10.1-.7H17V51H14.1c-1.1-.8-3.7-1.9-10.2-3.9.3,3.3.3,6.3.3,14.2,0,9.4-.5,21.3-.5,23.3,0,2.5.4,2.9,3.3,2.9,3.7,0,5.6-.8,5.6-3.7V81.3H17c0,4.5,0,8.4-.1,11.9H11a102.2,102.2,0,0,1-11-.7l.9,3.4A62.74,62.74,0,0,1,11,95.2h5.9c-.2,11.8-.5,17.2-.5,19.3,0,1.7.7,2.3,3.6,2.3,5.2,0,7.5-1.7,7.5-4.5,0-1.3-.3-6.5-.4-17.1H42.4c1.2,0,1.6-.3,1.6-1.1S43.7,92.9,40.8,90.1ZM17.4,79.3H12.6v-13h4.8Zm0-15H12.6V54.1A10.17,10.17,0,0,0,14.2,53h3.2ZM26.7,53h4.6V64.3H26.7Zm0,13.3h4.6v13H26.7Z"/><path class="cls-3" d="M292.4,116.8c-.6,0-.9.7-.4,1,3,1.8,3.8,3.7,4.4,9a4.49,4.49,0,0,0,4.7,3.6,5.89,5.89,0,0,0,6.1-5.9C307.21,119.7,301.71,116.3,292.4,116.8Z"/><path class="cls-3" d="M320.21,144.2c-5.7,9.3-8.1,11.5-9.6,11.5a8.4,8.4,0,0,1-2.9-.5,24.21,24.21,0,0,1-6.9-3.8,74.92,74.92,0,0,0,7.9-8c3.8-.2,4.5-.7,4.5-1.8s-.9-2-11.6-7.1l18.4-.1a1,1,0,0,0,1-1.1c0-.7-.2-1.1-3.5-4.1-4.9-4.5-5.3-4.6-6.3-4.6s-1.2.3-7,7.9l-15.9.1a49.74,49.74,0,0,1-1.3-10.7c3-1.3,3.6-2,3.6-2.9,0-1.6-.5-2.4-15.5-3.6.5,2.8.6,4.4,1,7.9a79.64,79.64,0,0,0,1.5,9.4l-14.8.1v-2.6c1.6-.9,2.4-1.7,2.4-2.6,0-.6-.7-1.3-4.6-1.9q3.6-.6,6.9-1.2c3.9.8,5.3-.2,5.3-1.3s-.8-2.6-10.5-8.4h55.9a.9.9,0,0,0,1-1c0-.7-.1-1-3.4-3.9-5.1-4.5-5.4-4.6-6.3-4.6s-1.2.1-7.6,7.5H279.4v-9h27.3a.9.9,0,0,0,1-1c0-.7-.1-.9-3.5-3.9-4.7-4.2-5-4.3-5.8-4.3s-1.1.1-7.2,7.2H279.4V95c1.5-.9,2.1-1.4,2.1-2.1h34.2a.9.9,0,0,0,1-1c0-.7-.1-.9-3.5-3.9-4.7-4.2-5-4.3-5.8-4.3s-1.1.1-7.2,7.2H283.5c2.7-1.9,5-3.5,8.7-6.4,3.7-.8,4.5-1.3,4.5-2.6s-1.1-2.1-14.2-5.6a30.2,30.2,0,0,1-1.4,5.3c-1.5,4.1-2.3,6.3-3.7,9.3H267.3a5.65,5.65,0,0,0,2.6-5.2c0-4.7-5.6-8.7-16.5-8.5-.6,0-.9.7-.4,1,3,1.6,5,5.1,5.3,9a5.18,5.18,0,0,0,1.7,3.7H245.6c-3.1,0-6.7-.2-11.9-.7l1,3.4a103.67,103.67,0,0,1,10.9-.7h21.2c.1,1.8.2,3.8.2,5.5v3.4H252.7c-3.1,0-6.7-.2-11.9-.7l1,3.4a103.65,103.65,0,0,1,10.9-.7H267v9H245.4c-3.5,0-7.5-.2-14.1-.7l1,3.4c5.7-.5,9.6-.7,13.1-.7h15.5a11.87,11.87,0,0,1-2.2,1.6c-7.2,4.5-17.6,8.4-29.1,10.8-.6.1-.4.9.2.9q11.55-.3,21.3-1.2a32.38,32.38,0,0,1,.2,4.4v1.6h-7.1a113,113,0,0,1-14.6-.7l.9,3.4c5.5-.5,10.1-.7,13.7-.7h7.1v8.5c-5,.8-9.8,1.5-13.9,2-3.1.4-5.2.5-8.6.8,4.5,11.7,5.5,12.6,6.6,12.6s1.5-.6,2.4-2.8c4.6-1.5,9.1-3,13.5-4.6v4.7c0,2-1,3.2-2.4,3.5a64.41,64.41,0,0,1-9.7.5.5.5,0,0,0-.1,1c4.9,1.8,6.8,4.1,7.8,7.3.5,1.7.9,2.3,2.6,2.4a22.33,22.33,0,0,0,7.8-1.1c3.7-1.5,5.9-4.5,5.9-9.6,0-1.5-.3-6.2-.4-12.9,6.8-2.7,12.7-5.1,16.8-7a39.82,39.82,0,0,0,3,7.3,48.7,48.7,0,0,0,3.2,5.2,53.92,53.92,0,0,1-22.2,12c-.6.1-.3,1.1.3,1,10.9-1.1,18.8-3.1,27-7.2a40,40,0,0,0,10.7,7.8c4.8,2.3,8.9,3.4,12.5,3.4,4.1,0,6.8-1.9,6.8-4.9a8.76,8.76,0,0,0-1.2-4.8,9.51,9.51,0,0,1-.9-4.3c0-1.5.4-3.9,2.2-11.1C321.11,144,320.51,143.7,320.21,144.2Zm-57.4-2.7v-6.7l15.2-.1c.3,1.2.7,2.4,1,3.6C274.6,139.3,268.8,140.4,262.8,141.5Zm34.4-1a39.76,39.76,0,0,1-3.2,4.3,32.54,32.54,0,0,1-5.1-10.2l11.6-.1A42.59,42.59,0,0,1,297.2,140.5Z"/><path class="cls-3" d="M425.4,149.5c-4.6.7-10.1,1.5-15.7,2.2V131.6h14.4a1,1,0,0,0,1-1c0-.7-.3-1.2-3.1-4.4-3.1-3.6-3.5-3.7-4.2-3.7s-1.1.2-5.8,7.1h-2.3V111.8a8.09,8.09,0,0,0,1.1-.3c.4.8,1.3,1,3.1,1,5.4,0,7.7-1.5,7.7-4.3,0-1-.4-6.6-.4-13.6V91.4c2.7-2.3,2.8-2.5,2.8-3.3s-.3-1.2-3.5-4c-4.3-3.7-4.8-3.8-5.7-3.8s-1.2.2-5.6,5H399c-.6-1.4-3.1-2.4-12.7-4.6.3,4,.3,7.7.3,17.9,0,7.9-.4,15-.4,16.2,0,2.8.7,3.4,3.8,3.4,4.4,0,6.7-1.4,6.7-5.1v-2.6h2.6c.2,2,.2,4.1.2,6.1V153l-4.2.4V128.6c2.5-1.4,2.9-2,2.9-2.9s-1.1-1.9-13-3.3a132.57,132.57,0,0,1,.5,15.4v16.5q-2.1.15-5.7.3c4.1,13.7,4.8,15,6.1,15s1.8-.7,2.8-3.4c13.4-5.1,26.4-10.9,36.8-15.7A.53.53,0,0,0,425.4,149.5Zm-28.7-41V88.7a16.26,16.26,0,0,0,1.8-1.4h12v21.2Z"/><path class="cls-3" d="M476.41,122.9a77.38,77.38,0,0,1-22.6-6.8,73.43,73.43,0,0,0,11.3-16.9c3.7-1.8,3.9-2.2,3.9-3.4s-.5-1.8-4.7-5.2c-4.9-3.9-5.3-4-6.3-4s-1.5.4-6.2,6.2H441.7c1.2-2.3,2.2-4.5,3-6.5,3-1,3.7-1.7,3.7-2.9,0-1.4-1.3-2-15.4-5.8a55.87,55.87,0,0,1-1,6.3c-3,14.5-8.3,27.7-14.4,35-.4.5.1,1,.6.7,5.3-3.1,11.4-9.3,16.5-16.1a51,51,0,0,0,6,12.4c-9,11.6-20.3,21.6-28.5,25.3-.5.2-.2,1.2.4,1a83.53,83.53,0,0,0,14.1-5.4v9.9c0,8.9-.5,18.8-.5,20.1,0,2.7.8,3.6,4.6,3.6,4.2,0,6.6-1.3,6.6-4.1v-4.2h16.9v3.6c0,2.7.9,3.5,4.9,3.5,4.6,0,7.2-1.8,7.2-4.6,0-1.2-.4-6.7-.4-17.1v-5.7c2-1.5,2.3-1.8,2.3-2.7s-.4-1.4-4.3-4.4c-1.3-1-2.2-1.7-2.9-2.2a28.21,28.21,0,0,0,5,1.9,8.54,8.54,0,0,0,2.5.4c.8,0,1.5-.7,1.9-1.9,1.2-3.4,2.9-6.9,5.9-9C476.91,123.6,477,123,476.41,122.9Zm-40.2-21.4c1.6-2.2,3-4.5,4.3-6.7H453a76.32,76.32,0,0,1-8.5,15.8A33.69,33.69,0,0,1,436.2,101.5Zm18.1,58.6H437.4V139.2a12.75,12.75,0,0,0,1.5-1.2h15.4Zm3.9-28.9c-.8,0-1,.1-5.1,4.8h-14c-.6-.6-2.1-1.3-6-2.7a91.09,91.09,0,0,0,13.8-10.2,53.2,53.2,0,0,0,11.5,8.1Z"/><circle class="cls-3" cx="353.53" cy="140.13" r="25"/><path class="cls-4" d="M359.69,130.12c2.28-2.35,2.48-2.48,2.83-2.48s.79.21,2.9,2c1.69,1.48,1.9,1.66,1.9,2.1s-.17.59-2.31,1.41a66.45,66.45,0,0,1-19.64,12.49,7.66,7.66,0,0,0,2.73,2.66c1.48.76,3.07,1.17,6.52,1.17a116.89,116.89,0,0,0,15.74-1.1c.21,0,.24.28.07.38a4.9,4.9,0,0,0-2.42,3.93,1.06,1.06,0,0,1-.9.9,70.65,70.65,0,0,1-9.39.38c-5.38,0-8-1-9.73-2.52a12.94,12.94,0,0,1-3.69-6.32,33.19,33.19,0,0,1-2,6.28c-.07,1.21-.38,1.66-.76,1.69s-.83-.24-3.52-4.14a15,15,0,0,0,4.9-5.31,5.4,5.4,0,0,0,.52-2.1c0-.41.14-.62.79-.52,1.07.17,1.41.48,1.21.93a9.49,9.49,0,0,0-.93,2.07c.14.31.28.59.45.9a58.36,58.36,0,0,0,15-14.15H344.78a26.51,26.51,0,0,0-3.52.24l-.35-1.21a30.38,30.38,0,0,0,3.87.28h6.35v-4.28a18.57,18.57,0,0,0-.21-2.62c5.83.41,6.25.69,6.25,1.31,0,.35-.17.62-1.41,1.1v4.49Z"/></g></svg>