<svg height="26" preserveAspectRatio="xMidYMid meet" viewBox="0 0 26 26" width="26" xmlns="http://www.w3.org/2000/svg" xmlns:xlink="http://www.w3.org/1999/xlink"><defs><path id="a" d="m0 23.98c0 1.11.9 2 2 2h11.84c0-.67 0-4.01 0-10.03h-3.38v-4.1h3.38c0-2.06 0-3.21 0-3.44 0-2.5 2.03-4.53 4.53-4.53h3.54v3.68c-1.52 0-2.36 0-2.53 0-.8 0-1.44.65-1.44 1.44v2.85h3.9l-.54 4.1h-3.36v10.03h6.04c1.11 0 2-.89 2-2 0-2.19 0-19.78 0-21.98 0-1.1-.89-2-2-2-1.47 0-8.79 0-21.98 0-1.33.6-2 1.26-2 2z"/><path id="b" d="m0 23.98c0 1.11.9 2 2 2h11.84c0-.67 0-4.01 0-10.03h-3.38v-4.1h3.38c0-2.06 0-3.21 0-3.44 0-2.5 2.03-4.53 4.53-4.53h3.54v3.68c-1.52 0-2.36 0-2.53 0-.8 0-1.44.65-1.44 1.44v2.85h3.9l-.54 4.1h-3.36v10.03h6.04c1.11 0 2-.89 2-2 0-2.19 0-19.78 0-21.98 0-1.1-.89-2-2-2-1.47 0-8.79 0-21.98 0-1.33.6-2 1.26-2 2z"/></defs><use fill="#4a4a4a" xlink:href="#a"/><g fill="none"><use xlink:href="#a"/><use xlink:href="#b"/><use xlink:href="#b"/></g></svg>