<svg height="26" preserveAspectRatio="xMidYMid meet" viewBox="0 0 26 26" width="26" xmlns="http://www.w3.org/2000/svg" xmlns:xlink="http://www.w3.org/1999/xlink"><defs><path id="a" d="m24 25.97c1.11 0 2-.89 2-2 0-2.19 0-19.77 0-21.97 0-1.1-.89-2-2-2-2.2 0-19.77 0-21.97 0-1.1 0-2 .9-2 2v21.97c.6 1.34 1.27 2 2 2z"/><path id="b" d="m24 25.97c1.11 0 2-.89 2-2 0-2.19 0-19.77 0-21.97 0-1.1-.89-2-2-2-2.2 0-19.77 0-21.97 0-1.1 0-2 .9-2 2v21.97c.6 1.34 1.27 2 2 2z"/><path id="c" d="m13.02 3.26c-1.81 0-3.48.44-5.01 1.33-1.53.9-2.74 2.11-3.63 3.63-.89 1.53-1.34 3.2-1.34 5.01 0 2.17.64 4.13 1.91 5.86 1.26 1.74 2.9 2.94 4.91 3.61.23.04.41.01.52-.09.11-.11.17-.24.17-.39 0-.03 0-.26-.01-.7 0-.45 0-.83 0-1.16-.03 0-.27.05-.3.05-.19.04-.43.05-.72.05-.29-.01-.59-.04-.91-.09-.31-.06-.6-.19-.87-.39-.26-.21-.45-.47-.57-.8-.01-.03-.12-.27-.13-.3-.08-.2-.22-.42-.41-.66-.18-.25-.37-.41-.56-.5-.01 0-.08-.05-.09-.06-.06-.04-.12-.1-.17-.16s-.09-.12-.12-.18c-.02-.06 0-.11.07-.15s.19-.06.37-.06c.03.01.23.04.26.04.18.04.39.14.65.31.25.18.46.4.63.68.2.35.44.62.72.81s.56.28.85.28c.28 0 .53-.02.74-.07.21-.04.4-.1.58-.19.08-.58.29-1.03.64-1.34-.5-.05-.94-.13-1.33-.23-.4-.11-.8-.27-1.22-.51-.42-.23-.77-.52-1.05-.87-.28-.34-.5-.8-.68-1.36s-.27-1.21-.27-1.95c0-1.05.35-1.94 1.03-2.67-.32-.79-.29-1.68.09-2.65.25-.08.62-.02 1.12.17.49.2.85.36 1.08.5s.41.26.55.35c.81-.22 1.64-.34 2.5-.34.85 0 1.68.12 2.49.34.05-.03.44-.28.49-.31.34-.21.74-.4 1.2-.57s.81-.22 1.05-.14c.39.97.42 1.86.1 2.65.69.73 1.03 1.62 1.03 2.67 0 .74-.09 1.39-.27 1.95-.17.57-.4 1.03-.68 1.37-.29.34-.64.63-1.06.86-.42.24-.82.4-1.22.51-.39.1-.83.18-1.33.23.45.39.68 1.01.68 1.85v2.74c0 .15.05.28.16.39.11.1.28.13.51.09 2.01-.67 3.65-1.87 4.92-3.61 1.27-1.73 1.9-3.69 1.9-5.86 0-1.81-.45-3.48-1.34-5.01-.89-1.52-2.1-2.73-3.63-3.63-1.53-.89-3.19-1.33-5-1.33z"/><path id="d" d="m13.02 3.26c-1.81 0-3.48.44-5.01 1.33-1.53.9-2.74 2.11-3.63 3.63-.89 1.53-1.34 3.2-1.34 5.01 0 2.17.64 4.13 1.91 5.86 1.26 1.74 2.9 2.94 4.91 3.61.23.04.41.01.52-.09.11-.11.17-.24.17-.39 0-.03 0-.26-.01-.7 0-.45 0-.83 0-1.16-.03 0-.27.05-.3.05-.19.04-.43.05-.72.05-.29-.01-.59-.04-.91-.09-.31-.06-.6-.19-.87-.39-.26-.21-.45-.47-.57-.8-.01-.03-.12-.27-.13-.3-.08-.2-.22-.42-.41-.66-.18-.25-.37-.41-.56-.5-.01 0-.08-.05-.09-.06-.06-.04-.12-.1-.17-.16s-.09-.12-.12-.18c-.02-.06 0-.11.07-.15s.19-.06.37-.06c.03.01.23.04.26.04.18.04.39.14.65.31.25.18.46.4.63.68.2.35.44.62.72.81s.56.28.85.28c.28 0 .53-.02.74-.07.21-.04.4-.1.58-.19.08-.58.29-1.03.64-1.34-.5-.05-.94-.13-1.33-.23-.4-.11-.8-.27-1.22-.51-.42-.23-.77-.52-1.05-.87-.28-.34-.5-.8-.68-1.36s-.27-1.21-.27-1.95c0-1.05.35-1.94 1.03-2.67-.32-.79-.29-1.68.09-2.65.25-.08.62-.02 1.12.17.49.2.85.36 1.08.5s.41.26.55.35c.81-.22 1.64-.34 2.5-.34.85 0 1.68.12 2.49.34.05-.03.44-.28.49-.31.34-.21.74-.4 1.2-.57s.81-.22 1.05-.14c.39.97.42 1.86.1 2.65.69.73 1.03 1.62 1.03 2.67 0 .74-.09 1.39-.27 1.95-.17.57-.4 1.03-.68 1.37-.29.34-.64.63-1.06.86-.42.24-.82.4-1.22.51-.39.1-.83.18-1.33.23.45.39.68 1.01.68 1.85v2.74c0 .15.05.28.16.39.11.1.28.13.51.09 2.01-.67 3.65-1.87 4.92-3.61 1.27-1.73 1.9-3.69 1.9-5.86 0-1.81-.45-3.48-1.34-5.01-.89-1.52-2.1-2.73-3.63-3.63-1.53-.89-3.19-1.33-5-1.33z"/></defs><use fill="#4a4a4a" xlink:href="#a"/><g fill="none"><use xlink:href="#a"/><use xlink:href="#b"/><use xlink:href="#b"/></g><use fill="#fff" xlink:href="#c"/><use fill="none" xlink:href="#c"/><use fill="none" xlink:href="#d"/><use fill="none" xlink:href="#d"/></svg>