<svg height="26" preserveAspectRatio="xMidYMid meet" viewBox="0 0 26 26" width="26" xmlns="http://www.w3.org/2000/svg" xmlns:xlink="http://www.w3.org/1999/xlink"><defs><path id="a" d="m0 1.87v22.24c0 1.03.84 1.87 1.87 1.87h22.24c1.03 0 1.87-.84 1.87-1.87 0-2.23 0-20.01 0-22.24 0-1.03-.84-1.87-1.87-1.87-13.34 0-20.76 0-22.24 0-1.03 0-1.87.84-1.87 1.87zm17.88 18.19c-.48.18-1.02.31-1.81.34-.8.04-1.05.05-3.08.05s-2.28-.01-3.08-.05c-.79-.03-1.33-.16-1.81-.34-.49-.19-.94-.48-1.32-.86s-.67-.83-.86-1.32c-.18-.48-.31-1.02-.34-1.81-.04-.8-.05-1.05-.05-3.08s.01-2.28.05-3.08c.03-.79.16-1.33.34-1.81.19-.49.48-.94.86-1.32s.83-.67 1.32-.86c.48-.18 1.02-.31 1.81-.34.8-.04 1.05-.05 3.08-.05s2.28.01 3.08.05c.79.03 1.33.16 1.81.34.49.19.94.48 1.32.86s.67.83.86 1.32c.18.48.31 1.02.34 1.81.04.8.05 1.05.05 3.08s-.01 2.28-.05 3.08c-.03.79-.16 1.33-.34 1.81-.39 1-1.18 1.79-2.18 2.18z"/><path id="b" d="m0 1.87v22.24c0 1.03.84 1.87 1.87 1.87h22.24c1.03 0 1.87-.84 1.87-1.87 0-2.23 0-20.01 0-22.24 0-1.03-.84-1.87-1.87-1.87-13.34 0-20.76 0-22.24 0-1.03 0-1.87.84-1.87 1.87zm17.88 18.19c-.48.18-1.02.31-1.81.34-.8.04-1.05.05-3.08.05s-2.28-.01-3.08-.05c-.79-.03-1.33-.16-1.81-.34-.49-.19-.94-.48-1.32-.86s-.67-.83-.86-1.32c-.18-.48-.31-1.02-.34-1.81-.04-.8-.05-1.05-.05-3.08s.01-2.28.05-3.08c.03-.79.16-1.33.34-1.81.19-.49.48-.94.86-1.32s.83-.67 1.32-.86c.48-.18 1.02-.31 1.81-.34.8-.04 1.05-.05 3.08-.05s2.28.01 3.08.05c.79.03 1.33.16 1.81.34.49.19.94.48 1.32.86s.67.83.86 1.32c.18.48.31 1.02.34 1.81.04.8.05 1.05.05 3.08s-.01 2.28-.05 3.08c-.03.79-.16 1.33-.34 1.81-.39 1-1.18 1.79-2.18 2.18z"/><path id="c" d="m17.39 7.18c-.26-.11-.66-.23-1.39-.26-.78-.04-1.02-.04-3.01-.04s-2.23 0-3.01.04c-.73.03-1.13.15-1.39.26-.32.11-.62.31-.86.55s-.44.54-.55.86c-.11.26-.23.66-.26 1.39-.04.78-.05 1.02-.05 3.01s.01 2.23.05 3.01c.03.73.15 1.13.26 1.39.11.32.31.62.55.86s.54.44.86.56c.26.1.66.22 1.39.25.78.04 1.02.05 3.01.05s2.23-.01 3.01-.05c.73-.03 1.13-.15 1.39-.25.65-.26 1.16-.77 1.41-1.42.11-.26.23-.66.26-1.39.04-.78.05-1.02.05-3.01s-.01-2.23-.05-3.01c-.03-.73-.15-1.13-.26-1.39-.11-.32-.31-.62-.55-.86s-.54-.44-.86-.55zm-4.4 1.98c2.12 0 3.83 1.71 3.83 3.83s-1.71 3.83-3.83 3.83-3.83-1.71-3.83-3.83 1.71-3.83 3.83-3.83zm3.98-1.05c.5 0 .9.4.9.9 0 .49-.4.89-.9.89-.49 0-.89-.4-.89-.89 0-.5.4-.9.89-.9z"/><path id="d" d="m17.39 7.18c-.26-.11-.66-.23-1.39-.26-.78-.04-1.02-.04-3.01-.04s-2.23 0-3.01.04c-.73.03-1.13.15-1.39.26-.32.11-.62.31-.86.55s-.44.54-.55.86c-.11.26-.23.66-.26 1.39-.04.78-.05 1.02-.05 3.01s.01 2.23.05 3.01c.03.73.15 1.13.26 1.39.11.32.31.62.55.86s.54.44.86.56c.26.1.66.22 1.39.25.78.04 1.02.05 3.01.05s2.23-.01 3.01-.05c.73-.03 1.13-.15 1.39-.25.65-.26 1.16-.77 1.41-1.42.11-.26.23-.66.26-1.39.04-.78.05-1.02.05-3.01s-.01-2.23-.05-3.01c-.03-.73-.15-1.13-.26-1.39-.11-.32-.31-.62-.55-.86s-.54-.44-.86-.55zm-4.4 1.98c2.12 0 3.83 1.71 3.83 3.83s-1.71 3.83-3.83 3.83-3.83-1.71-3.83-3.83 1.71-3.83 3.83-3.83zm3.98-1.05c.5 0 .9.4.9.9 0 .49-.4.89-.9.89-.49 0-.89-.4-.89-.89 0-.5.4-.9.89-.9z"/><path id="e" d="m10.5 12.99c0-1.37 1.12-2.49 2.49-2.49s2.49 1.12 2.49 2.49-1.12 2.49-2.49 2.49-2.49-1.12-2.49-2.49z"/><path id="f" d="m10.5 12.99c0-1.37 1.12-2.49 2.49-2.49s2.49 1.12 2.49 2.49-1.12 2.49-2.49 2.49-2.49-1.12-2.49-2.49z"/></defs><use fill="#4a4a4a" xlink:href="#a"/><g fill="none"><use xlink:href="#a"/><use xlink:href="#b"/><use xlink:href="#b"/></g><use fill="#4a4a4a" xlink:href="#c"/><use fill="none" xlink:href="#c"/><use fill="none" xlink:href="#d"/><use fill="none" xlink:href="#d"/><use fill="#4a4a4a" xlink:href="#e"/><use fill="none" xlink:href="#e"/><use fill="none" xlink:href="#f"/><use fill="none" xlink:href="#f"/></svg>