<svg height="26" preserveAspectRatio="xMidYMid meet" viewBox="0 0 26 26" width="26" xmlns="http://www.w3.org/2000/svg" xmlns:xlink="http://www.w3.org/1999/xlink"><defs><path id="a" d="m23.99 0c1.1 0 2 .9 2 2v21.98c0 1.11-.9 2-2 2-2.2 0-19.79 0-21.99 0-1.1 0-2-.89-2-2 0-1.46 0-8.79 0-21.98.6-1.33 1.27-2 2-2zm-1.44 7.35s-1.13.47-2.23.58c.11-.07 1.52-1.04 1.71-2.18 0 0-.79.42-1.9.79-.19.06-.38.12-.58.18-.71-.77-1.73-1.24-2.86-1.24-2.17 0-3.93 1.75-3.93 3.92 0 .3.04.6.1.89-.3-.01-4.91-.27-8.05-4.07 0 0-1.88 2.56 1.12 5.19 0 0-.92-.04-1.7-.5 0 0-.29 3.1 3.1 3.89 0 0-.67.25-1.73.07 0 0 .6 2.51 3.61 2.74 0 0-2.38 2.16-5.76 1.65 1.73 1.1 3.78 1.73 5.98 1.73 6.17 0 11.18-5.01 11.18-11.18 0-.16 0-.31-.01-.46.23-.18 1.61-1.29 1.95-2z"/><path id="b" d="m23.99 0c1.1 0 2 .9 2 2v21.98c0 1.11-.9 2-2 2-2.2 0-19.79 0-21.99 0-1.1 0-2-.89-2-2 0-1.46 0-8.79 0-21.98.6-1.33 1.27-2 2-2zm-1.44 7.35s-1.13.47-2.23.58c.11-.07 1.52-1.04 1.71-2.18 0 0-.79.42-1.9.79-.19.06-.38.12-.58.18-.71-.77-1.73-1.24-2.86-1.24-2.17 0-3.93 1.75-3.93 3.92 0 .3.04.6.1.89-.3-.01-4.91-.27-8.05-4.07 0 0-1.88 2.56 1.12 5.19 0 0-.92-.04-1.7-.5 0 0-.29 3.1 3.1 3.89 0 0-.67.25-1.73.07 0 0 .6 2.51 3.61 2.74 0 0-2.38 2.16-5.76 1.65 1.73 1.1 3.78 1.73 5.98 1.73 6.17 0 11.18-5.01 11.18-11.18 0-.16 0-.31-.01-.46.23-.18 1.61-1.29 1.95-2z"/></defs><use fill="#4a4a4a" xlink:href="#a"/><g fill="none"><use xlink:href="#a"/><use xlink:href="#b"/><use xlink:href="#b"/></g></svg>