<svg fill="none" height="13" viewBox="0 0 8 13" width="8" xmlns="http://www.w3.org/2000/svg"><path d="m7.10938 6.35938c0-.10938-.03907-.17969-.11719-.25l-6.312502-5.79688c-.054688-.0625-.132813-.09375-.226563-.09375-.164063 0-.304687.132812-.304687.3125 0 .085938.03125.15625.085937.210938l6.109375 5.617192-6.109375 5.61722c-.054687.0546-.085937.1172-.085937.2109 0 .1797.140624.3047.304687.3047.09375 0 .171875-.0313.226563-.086l6.312502-5.79682c.07812-.07032.11719-.14844.11719-.25z" fill="#000928"/></svg>