<svg width="8" height="13" viewBox="0 0 8 13" fill="none" xmlns="http://www.w3.org/2000/svg">
<path d="M7.10938 6.35938C7.10938 6.25 7.07031 6.17969 6.99219 6.10938L0.679688 0.3125C0.625 0.25 0.546875 0.21875 0.453125 0.21875C0.289062 0.21875 0.148438 0.351562 0.148438 0.53125C0.148438 0.617188 0.179688 0.6875 0.234375 0.742188L6.34375 6.35938L0.234375 11.9766C0.179688 12.0312 0.148438 12.0938 0.148438 12.1875C0.148438 12.3672 0.289062 12.4922 0.453125 12.4922C0.546875 12.4922 0.625 12.4609 0.679688 12.4062L6.99219 6.60938C7.07031 6.53906 7.10938 6.46094 7.10938 6.35938Z" fill="#000928"/>
</svg>
