<svg width="587" height="148" viewBox="0 0 587 148" fill="none" xmlns="http://www.w3.org/2000/svg">
<path d="M32.5 109.1C39.3 84 34.5 45.1 64.2 18.6C77.1 7.10001 107.3 3.80001 124.5 2.10001C174 -2.99999 486.1 1.50001 534.7 12.3C548.4 15.3 562.4 19.2 573.5 27.9C578.1 31.5 582.2 36.1 584.4 41.6C586.2 46 586.7 50.8 586.8 55.6C587.5 84.9 572.6 114.8 547.2 129.3C533.5 137.1 517.7 140.3 502.1 142.5C464 147.8 152.4 147.4 114.1 146.3C94.6 145.8 75.2 145 55.7 144.8C41.3 144.6 12.3 150.6 0 144.3C15.5 137.1 26.5 131.4 32.5 109.1Z" fill="white"/>
</svg>
