<svg width="21" height="12" viewBox="0 0 21 12" fill="none" xmlns="http://www.w3.org/2000/svg"><path opacity="0.5" d="M10.75 11.4336C10.9961 11.4336 11.2188 11.3281 11.3945 11.1406L20.2773 1.78906C20.4297 1.63672 20.5234 1.44922 20.5234 1.21484C20.5234 0.757812 20.1719 0.40625 19.7148 0.40625C19.5039 0.40625 19.2812 0.488281 19.1289 0.640625L10.7617 9.45312L2.37109 0.640625C2.23047 0.488281 2.01953 0.40625 1.79688 0.40625C1.33984 0.40625 0.988281 0.757812 0.988281 1.21484C0.988281 1.44922 1.08203 1.63672 1.23438 1.80078L10.1172 11.1523C10.3047 11.3281 10.5039 11.4336 10.75 11.4336Z" fill="white"/></svg>
