<svg width="8" height="14" viewBox="0 0 8 14" fill="none" xmlns="http://www.w3.org/2000/svg"><path d="M7.61719 6.85938C7.61719 6.70312 7.5625 6.57031 7.44531 6.46094L1.20312 0.507812C1.09375 0.40625 0.96875 0.351562 0.8125 0.351562C0.515625 0.351562 0.273438 0.585938 0.273438 0.890625C0.273438 1.03906 0.335938 1.17188 0.429688 1.27344L6.29688 6.85938L0.429688 12.4453C0.335938 12.5391 0.273438 12.6719 0.273438 12.8203C0.273438 13.1328 0.515625 13.3594 0.8125 13.3594C0.96875 13.3594 1.09375 13.3047 1.20312 13.2031L7.44531 7.25781C7.5625 7.14844 7.61719 7.01562 7.61719 6.85938Z" fill="rgba(255, 255, 255, 0.5)"/></svg>
