<svg fill="none" height="20" viewBox="0 0 20 20" width="20" xmlns="http://www.w3.org/2000/svg"><path d="m8.47656 16.3457c1.42578 0 2.76364-.3809 3.93554-1.0449l3.6817 3.6914c.3808.3808.9082.5664 1.4355.5664 1.1426 0 1.9922-.8789 1.9922-2.002 0-.5175-.1758-1.0254-.5664-1.416l-3.6524-3.6523c.7422-1.211 1.1719-2.62697 1.1719-4.14064 0-4.38477-3.6035-7.998051-7.99804-7.998051-4.38476 0-7.998044 3.603511-7.998044 7.998051s3.603514 7.99804 7.998044 7.99804zm0-2.8125c-2.86133 0-5.18554-2.3242-5.18554-5.18554 0-2.85157 2.32421-5.18555 5.18554-5.18555 2.86134 0 5.18554 2.33398 5.18554 5.18555 0 2.86134-2.3242 5.18554-5.18554 5.18554z" fill="#000" fill-opacity=".3"/></svg>