<?xml version="1.0" encoding="UTF-8"?>
<svg width="30px" height="94px" viewBox="0 0 30 94" version="1.1" xmlns="http://www.w3.org/2000/svg" xmlns:xlink="http://www.w3.org/1999/xlink">
    <!-- Generator: Sketch 52.6 (67491) - http://www.bohemiancoding.com/sketch -->
    <title>{</title>
    <desc>Created with Sketch.</desc>
    <g id="Welcome" stroke="none" stroke-width="1" fill="none" fill-rule="evenodd">
        <path d="M22.2,0 L29.1,0 L29.1,6.3 L23.5,6.3 C19.1,6.3 16.9,8.7 16.9,13.7 L16.9,34.5 C16.9,40.5 14.1,44.6 8.7,46.7 C14.1,48.9 16.9,53 16.9,58.9 L16.9,79.8 C16.9,84.6 19.1,87.1 23.5,87.1 L29.1,87.1 L29.1,93.4 L22.2,93.4 C18.1,93.4 14.9,92.1 12.7,89.5 C10.5,87.1 9.5,83.8 9.5,79.6 L9.5,59.2 C9.5,56.2 8.8,54 7.6,52.6 C6.2,51 3.6,50.1 0,50 L0,43.4 C3.6,43.2 6.2,42.4 7.6,40.8 C8.8,39.4 9.5,37.2 9.5,34.2 L9.5,13.9 C9.5,9.7 10.5,6.3 12.7,3.9 C14.9,1.3 18.1,0 22.2,0 Z" id="{" fill="#E0C950"></path>
    </g>
</svg>