<svg height="32" viewBox="0 0 32 32" width="32" xmlns="http://www.w3.org/2000/svg" xmlns:xlink="http://www.w3.org/1999/xlink"><filter id="a" height="200%" width="200%" x="-50%" y="-50%"><feOffset dy="2" in="SourceAlpha" result="shadowOffsetOuter1"/><feGaussianBlur in="shadowOffsetOuter1" result="shadowBlurOuter1" stdDeviation="2"/><feColorMatrix in="shadowBlurOuter1" result="shadowMatrixOuter1" values="0 0 0 0 0 0 0 0 0 0 0 0 0 0 0 0 0 0 0.5 0"/><feMerge><feMergeNode in="shadowMatrixOuter1"/><feMergeNode in="SourceGraphic"/></feMerge></filter><g fill="none" fill-rule="evenodd" filter="url(#a)" transform="translate(4 2)"><circle cx="12" cy="12" fill="#006db2" fill-rule="nonzero" r="12"/><path d="m4.72 6.816h2.144c-.208-.544-.448-1.072-.704-1.584l1.456-.4c.304.736.528 1.392.688 1.984h1.856v1.376h-5.44zm.576 2.4h4.24v1.28h-4.24zm0 2.208h4.24v1.296h-4.24zm4.416 2.384v5.6h-1.408v-.72h-1.76v.704h-1.424v-5.584zm-3.168 3.536h1.76v-2.192h-1.76zm3.984-9.856h3.6c-.272-.752-.592-1.472-.96-2.144l1.488-.48c.368.768.688 1.632.976 2.624h3.488v1.488h-3.504v3.424h3.152v1.44h-3.152v3.808h3.792v1.488h-9.136v-1.488h3.856v-3.808h-3.184v-1.44h3.184v-3.424h-3.6z" fill="#fff"/></g></svg>