<svg id="圖層_1" data-name="圖層 1" xmlns="http://www.w3.org/2000/svg" viewBox="0 0 50 50"><defs><style>.cls-1{fill:#2bac38;}.cls-2{fill:#fff;}</style></defs><title>logo-line</title><circle class="cls-1" cx="25.31" cy="25.18" r="24"/><path class="cls-2" d="M20.68,19.94H19.13a.43.43,0,0,0-.43.43V30a.43.43,0,0,0,.43.43h1.55a.43.43,0,0,0,.43-.43v-9.6a.43.43,0,0,0-.43-.43"/><path class="cls-2" d="M31.32,19.94H29.77a.43.43,0,0,0-.43.43v5.71l-4.4-5.94,0,0h0l0,0h0l0,0h0l0,0H23a.43.43,0,0,0-.43.43V30a.43.43,0,0,0,.43.43h1.55A.43.43,0,0,0,25,30v-5.7l4.41,6a.42.42,0,0,0,.11.11h0l0,0h1.76a.43.43,0,0,0,.43-.43v-9.6a.43.43,0,0,0-.43-.43"/><path class="cls-2" d="M16.95,28h-4.2V20.37a.43.43,0,0,0-.43-.43H10.77a.43.43,0,0,0-.43.43V30h0a.43.43,0,0,0,.12.3h0a.43.43,0,0,0,.3.12h6.18a.43.43,0,0,0,.43-.43V28.43a.43.43,0,0,0-.43-.43"/><path class="cls-2" d="M39.85,22.35a.43.43,0,0,0,.43-.43V20.37a.43.43,0,0,0-.43-.43H33.68a.43.43,0,0,0-.3.12h0a.43.43,0,0,0-.12.3h0V30h0a.43.43,0,0,0,.12.3h0a.43.43,0,0,0,.3.12h6.18a.43.43,0,0,0,.43-.43V28.43a.43.43,0,0,0-.43-.43h-4.2V26.38h4.2a.43.43,0,0,0,.43-.43V24.4a.43.43,0,0,0-.43-.43h-4.2V22.35Z"/></svg>