<?xml version="1.0" encoding="UTF-8"?>
<svg width="111px" height="111px" viewBox="0 0 111 111" version="1.1" xmlns="http://www.w3.org/2000/svg" xmlns:xlink="http://www.w3.org/1999/xlink">
    <!-- Generator: Sketch 52.6 (67491) - http://www.bohemiancoding.com/sketch -->
    <title>mirror logo-01</title>
    <desc>Created with Sketch.</desc>
    <defs>
        <filter x="-11.7%" y="-11.7%" width="123.8%" height="123.8%" filterUnits="objectBoundingBox" id="filter-1">
            <feOffset dx="0" dy="2" in="SourceAlpha" result="shadowOffsetOuter1"></feOffset>
            <feGaussianBlur stdDeviation="2" in="shadowOffsetOuter1" result="shadowBlurOuter1"></feGaussianBlur>
            <feColorMatrix values="0 0 0 0 0   0 0 0 0 0   0 0 0 0 0  0 0 0 0.5 0" type="matrix" in="shadowBlurOuter1" result="shadowMatrixOuter1"></feColorMatrix>
            <feMerge>
                <feMergeNode in="shadowMatrixOuter1"></feMergeNode>
                <feMergeNode in="SourceGraphic"></feMergeNode>
            </feMerge>
        </filter>
    </defs>
    <g id="Welcome" stroke="none" stroke-width="1" fill="none" fill-rule="evenodd">
        <g id="mirror-logo-01" filter="url(#filter-1)" transform="translate(4.000000, 2.000000)" fill="#FFFFFF" fill-rule="nonzero">
            <path d="M51.3413859,0 C30.7467667,-0.00172133129 12.1790733,12.45433 4.29666597,31.5597331 C-3.58574141,50.6651362 0.769503331,72.6572613 15.3314921,87.2808905 C29.8934809,101.90452 51.7943669,106.279667 70.8214781,98.3661425 C89.8485893,90.4526184 102.254715,71.8089176 102.254715,51.1288435 C102.224353,22.9054622 79.448139,0.0328369106 51.3413859,0 Z M51.3413859,100.551122 C31.4320556,100.552844 13.4822526,88.5110861 5.86248992,70.0412697 C-1.75727282,51.5714533 2.45370828,30.3111876 16.5317308,16.17475 C30.6097533,2.03831246 51.7821667,-2.19014159 70.1756615,5.46123841 C88.5691564,13.1126184 100.561155,31.1369018 100.559441,51.1288435 C100.526746,78.4104043 78.510213,100.518293 51.3413859,100.551122 Z" id="Shape"></path>
            <path d="M30.5149396,75.0505373 C31.5306291,73.9111984 32.1286816,72.4579061 32.210214,70.9309501 L32.210214,64.7090116 C32.210214,63.3812108 32.210214,62.2959889 32.210214,62.2959889 L30.5149396,63.9982977 L27.4380165,67.0879881 C26.422327,68.227327 25.8242746,69.6806193 25.7427421,71.2075753 L25.7427421,77.4295138 C25.7427421,78.7573146 25.7427421,79.8425364 25.7427421,79.8425364 L27.4380165,78.1402277 L30.5149396,75.0505373 Z" id="Path"></path>
            <circle id="Oval" transform="translate(45.558307, 68.805287) rotate(-45.000000) translate(-45.558307, -68.805287) " cx="45.5583071" cy="68.8052871" r="4.34042202"></circle>
            <path d="M49.5486332,84.7366741 C49.9856478,83.910413 50.2726722,83.0126221 50.3962704,82.0853282 L41.2248358,82.0853282 L41.2248358,60.1255453 L50.2352193,60.1255453 L50.2352193,56.176189 C50.2352193,53.2397064 47.5990676,53.6227258 47.5990676,53.6227258 L41.2417885,53.6227258 L41.2417885,47.0986275 L50.408985,47.0986275 C50.408985,47.0986275 50.408985,46.0134057 50.408985,44.6856049 L50.408985,40.3021598 C50.3277887,38.7751274 49.7296919,37.3217274 48.7137105,36.1825726 L39.8389489,27.3092882 C38.8995059,26.3768426 37.3878431,26.3768426 36.4484001,27.3092882 L27.5905912,36.2081072 C26.5746099,37.347262 25.9765131,38.8006621 25.8953168,40.3276944 L25.8953168,44.6515587 C25.8953168,45.9793595 25.8953168,47.0730929 25.8953168,47.0816044 C25.8953168,47.090116 26.675143,46.3283328 27.5905912,45.3792957 L36.4484001,36.5187786 C37.3878431,35.586333 38.8995059,35.586333 39.8389489,36.5187786 L43.8864166,40.5830407 L36.6815003,40.5830407 C35.3223821,40.6245495 34.037994,41.2172055 33.121424,42.2257687 L27.5482094,47.8348761 L34.7531257,47.8348761 L34.7531257,53.6227258 L25.7300275,53.6227258 L25.7300275,57.6912437 C25.7300275,57.6912437 25.4714982,60.1383126 28.2729392,60.1383126 L34.7531257,60.1383126 L34.7531257,82.0938398 L25.7300275,82.0938398 C25.7300275,82.0938398 27.8067387,88.6094265 31.6253444,88.6094265 L44.1830896,88.6094265 C44.5381333,88.6084553 44.8920064,88.5684973 45.238398,88.4902649 C46.7995886,87.9253312 48.1453456,86.8835485 49.0866709,85.5112246 L49.1714346,85.3792957 C49.2604365,85.243111 49.3409621,85.1026705 49.4214876,84.9537185 L49.5486332,84.7366741 Z" id="Path"></path>
            <path d="M77.2409409,73.1439515 L83.7380801,73.1439515 L83.7380801,49.2690712 L52.3755033,49.2690712 L52.3755033,69.8457283 C52.3755033,69.8457283 52.2822632,73.1354399 55.4778555,73.1354399 L58.8429752,73.1354399 L58.8429752,82.0725609 L52.5535071,82.0725609 C52.298618,84.5564909 51.1683077,86.867243 49.3663912,88.5881477 L59.1693155,88.5881477 C65.6452638,88.5881477 65.3655435,82.3236515 65.3655435,82.3236515 L65.3655435,73.1439515 L70.7649926,73.1439515 L70.7649926,88.600915 L76.9739352,88.600915 C80.9705446,88.600915 85.581691,82.0853282 85.581691,82.0853282 L77.2409409,82.0853282 L77.2409409,73.1439515 Z M73.2104259,66.6283647 C70.3098057,69.442118 65.7105376,69.442118 62.8099174,66.6283647 L58.9107862,66.6283647 L58.8853571,55.7846579 L62.8141555,55.7846579 C65.7147758,52.9709046 70.3140439,52.9709046 73.2146641,55.7846579 L77.26637,55.7846579 L77.26637,66.6283647 L73.2104259,66.6283647 Z" id="Shape"></path>
            <path d="M55.0964187,47.0986275 L83.7423183,47.0986275 C83.7423183,45.8899883 83.7423183,44.383445 83.7423183,43.0726673 C83.7423183,40.3745079 80.8518754,40.5830407 80.8518754,40.5830407 L78.8768807,40.5830407 L78.8768807,34.067454 L83.7423183,34.067454 L83.7423183,30.5011171 C83.7423183,30.5011171 83.8906548,27.5518672 80.6187752,27.5518672 L71.2947658,27.5518672 L71.2947658,24.5983615 L64.8442467,24.5983615 L64.8442467,27.5518672 L52.3966942,27.5518672 L52.3966942,31.9182892 C52.3966942,31.9182892 52.2992159,34.0717098 55.1430388,34.0717098 L57.2621318,34.0717098 L57.2621318,40.5830407 L52.3966942,40.5830407 L52.3966942,44.7366741 C52.3966942,44.7366741 52.3500742,47.0986275 55.0964187,47.0986275 Z M63.7380801,34.067454 L72.3882178,34.067454 L72.3882178,40.5830407 L63.7507947,40.5830407 L63.7380801,34.067454 Z" id="Shape"></path>
            <path d="M67.904217,55.5676136 C64.7723798,55.5676136 62.2335241,58.117004 62.2335241,61.2618364 C62.2335241,64.4066688 64.7723798,66.9560592 67.904217,66.9560592 C71.0360542,66.9560592 73.5749099,64.4066688 73.5749099,61.2618364 C73.5749099,58.117004 71.0360542,55.5676136 67.904217,55.5676136 Z M67.904217,65.1558676 C65.7624897,65.1558676 64.0262768,63.4124505 64.0262768,61.2618364 C64.0262768,59.1112223 65.7624897,57.3678051 67.904217,57.3678051 C70.0459443,57.3678051 71.7821572,59.1112223 71.7821572,61.2618364 C71.7798184,63.4107883 70.0442902,65.1516132 67.904217,65.1516119 L67.904217,65.1558676 Z" id="Shape"></path>
            <ellipse id="Oval" cx="67.904217" cy="61.2575806" rx="3.60245815" ry="3.61740611"></ellipse>
        </g>
    </g>
</svg>