<?xml version="1.0" encoding="UTF-8"?>
<svg width="79px" height="80px" viewBox="0 0 79 80" version="1.1" xmlns="http://www.w3.org/2000/svg" xmlns:xlink="http://www.w3.org/1999/xlink">
    <!-- Generator: Sketch 52.6 (67491) - http://www.bohemiancoding.com/sketch -->
    <title>Combined Shape</title>
    <desc>Created with Sketch.</desc>
    <defs>
        <path d="M27.6678789,32.9058979 C28.4241638,34.5409244 28.8461538,36.3622073 28.8461538,38.2820513 C28.8461538,40.2018953 28.4241638,42.0231782 27.6678789,43.6582047 L50.4554686,56.1632902 C52.4490778,51.671401 56.9484139,48.5384615 62.1794872,48.5384615 C69.2600609,48.5384615 75,54.2784006 75,61.3589744 C75,68.4395481 69.2600609,74.1794872 62.1794872,74.1794872 C55.0989135,74.1794872 49.3589744,68.4395481 49.3589744,61.3589744 C49.3589744,60.2421889 49.5017683,59.1587549 49.7700944,58.1259339 L26.6606084,45.4442023 C24.3571868,48.8578055 20.4535596,51.1025641 16.025641,51.1025641 C8.94506731,51.1025641 3.20512821,45.362625 3.20512821,38.2820513 C3.20512821,31.2014776 8.94506731,25.4615385 16.025641,25.4615385 C20.4535596,25.4615385 24.3571868,27.7062971 26.6606084,31.1199003 L49.7700944,18.4381686 C49.5017683,17.4053477 49.3589744,16.3219136 49.3589744,15.2051282 C49.3589744,8.12455449 55.0989135,2.38461538 62.1794872,2.38461538 C69.2600609,2.38461538 75,8.12455449 75,15.2051282 C75,22.2857019 69.2600609,28.025641 62.1794872,28.025641 C56.9484139,28.025641 52.4490778,24.8927016 50.4554686,20.4008124 L27.6678789,32.9058979 Z M62.1794872,4.94871795 C56.5150282,4.94871795 51.9230769,9.54066923 51.9230769,15.2051282 C51.9230769,20.8695872 56.5150282,25.4615385 62.1794872,25.4615385 C67.8439462,25.4615385 72.4358974,20.8695872 72.4358974,15.2051282 C72.4358974,9.54066923 67.8439462,4.94871795 62.1794872,4.94871795 Z M62.1794872,51.1025641 C56.5150282,51.1025641 51.9230769,55.6945154 51.9230769,61.3589744 C51.9230769,67.0234333 56.5150282,71.6153846 62.1794872,71.6153846 C67.8439462,71.6153846 72.4358974,67.0234333 72.4358974,61.3589744 C72.4358974,55.6945154 67.8439462,51.1025641 62.1794872,51.1025641 Z M16.025641,28.025641 C10.3611821,28.025641 5.76923077,32.6175923 5.76923077,38.2820513 C5.76923077,43.9465103 10.3611821,48.5384615 16.025641,48.5384615 C21.6901,48.5384615 26.2820513,43.9465103 26.2820513,38.2820513 C26.2820513,32.6175923 21.6901,28.025641 16.025641,28.025641 Z" id="path-1"></path>
        <filter x="-9.7%" y="-7.0%" width="119.5%" height="119.5%" filterUnits="objectBoundingBox" id="filter-2">
            <feOffset dx="0" dy="2" in="SourceAlpha" result="shadowOffsetOuter1"></feOffset>
            <feGaussianBlur stdDeviation="2" in="shadowOffsetOuter1" result="shadowBlurOuter1"></feGaussianBlur>
            <feColorMatrix values="0 0 0 0 0   0 0 0 0 0   0 0 0 0 0  0 0 0 0.5 0" type="matrix" in="shadowBlurOuter1"></feColorMatrix>
        </filter>
    </defs>
    <g id="Welcome" stroke="none" stroke-width="1" fill="none" fill-rule="evenodd">
        <g id="Combined-Shape" fill-rule="nonzero">
            <use fill="black" fill-opacity="1" filter="url(#filter-2)" xlink:href="#path-1"></use>
            <use fill="#FFFFFF" xlink:href="#path-1"></use>
        </g>
    </g>
</svg>